<?xml version="1.0" encoding="UTF-8" standalone="no"?>
<svg
   xmlns:dc="http://purl.org/dc/elements/1.1/"
   xmlns:cc="http://creativecommons.org/ns#"
   xmlns:rdf="http://www.w3.org/1999/02/22-rdf-syntax-ns#"
   xmlns:svg="http://www.w3.org/2000/svg"
   xmlns="http://www.w3.org/2000/svg"
   xmlns:xlink="http://www.w3.org/1999/xlink"
   id="svg8"
   version="1.1"
   viewBox="0 0 200 200"
   height="200mm"
   width="200mm">
  <defs
     id="defs2">
    <linearGradient
       id="GradientBackground">
      <stop
         style="stop-color:#4f4f4f;stop-opacity:1"
         offset="0"
         id="stop2347" />
      <stop
         style="stop-color:#2e2e2e;stop-opacity:1"
         offset="1"
         id="stop2349" />
    </linearGradient>
    <linearGradient
       id="GradientFlameOuter">
      <stop
         style="stop-color:#ffffff;stop-opacity:1"
         offset="0"
         id="stop2268" />
      <stop
         style="stop-color:#ffbf00;stop-opacity:1"
         offset="1"
         id="stop2270" />
    </linearGradient>
    <linearGradient
       id="GradientFlameInner">
      <stop
         id="stop2247"
         offset="0"
         style="stop-color:#0889ff;stop-opacity:1" />
      <stop
         id="stop2249"
         offset="1"
         style="stop-color:#ffffff;stop-opacity:1" />
    </linearGradient>
    <linearGradient
       id="GradientBackground-2">
      <stop
         id="stop2229"
         offset="0"
         style="stop-color:#848484;stop-opacity:1;" />
      <stop
         id="stop2231"
         offset="1"
         style="stop-color:#848484;stop-opacity:1" />
    </linearGradient>
    <linearGradient
       id="GradientBody">
      <stop
         style="stop-color:#adaeff;stop-opacity:1"
         offset="0"
         id="stop1464" />
      <stop
         style="stop-color:#010054;stop-opacity:1"
         offset="1"
         id="stop1462" />
    </linearGradient>
    <linearGradient
       gradientTransform="scale(3.7795276)"
       y2="132.22296"
       x2="113.52364"
       y1="67.543732"
       x1="113.52364"
       gradientUnits="userSpaceOnUse"
       id="linearGradient1470"
       xlink:href="#GradientBody" />
    <linearGradient
       y2="178.02678"
       x2="-132.11607"
       y1="178.02678"
       x1="-67.116074"
       gradientUnits="userSpaceOnUse"
       id="linearGradient1472"
       xlink:href="#GradientBody" />
    <linearGradient
       gradientTransform="matrix(0,3.7795276,-3.7795276,0,0,0)"
       y2="-51.782738"
       x2="132.11607"
       y1="-51.782738"
       x1="67.116074"
       gradientUnits="userSpaceOnUse"
       id="linearGradient1474"
       xlink:href="#GradientBody" />
    <linearGradient
       gradientTransform="scale(3.7795276)"
       gradientUnits="userSpaceOnUse"
       y2="132.11607"
       x2="51.782738"
       y1="67.116074"
       x1="51.782738"
       id="linearGradient1490"
       xlink:href="#GradientBody" />
    <linearGradient
       gradientUnits="userSpaceOnUse"
       y2="-51.782738"
       x2="132.11607"
       y1="-51.782738"
       x1="67.116074"
       id="linearGradient1498"
       xlink:href="#GradientBody" />
    <linearGradient
       gradientUnits="userSpaceOnUse"
       y2="68.842789"
       x2="178.02686"
       y1="132.11597"
       x1="54.66497"
       id="linearGradient2235"
       xlink:href="#GradientBackground-2" />
    <filter
       height="1.7104459"
       y="-0.35522295"
       width="1.3606513"
       x="-0.18032567"
       id="filter2243"
       style="color-interpolation-filters:sRGB">
      <feGaussianBlur
         id="feGaussianBlur2245"
         stdDeviation="1.6524203" />
    </filter>
    <radialGradient
       gradientUnits="userSpaceOnUse"
       gradientTransform="matrix(1.9399942,-0.05180029,0.13998219,2.9899488,-74.548617,-201.69214)"
       r="9.060814"
       fy="102.66572"
       fx="64.018738"
       cy="102.66572"
       cx="64.018738"
       id="radialGradient2255"
       xlink:href="#GradientFlameInner" />
    <radialGradient
       r="9.0608139"
       fy="102.7309"
       fx="64.490341"
       cy="102.7309"
       cx="64.490341"
       gradientTransform="matrix(11.272067,-0.09564681,0.30795013,1.2076501,-681.64265,-15.844904)"
       gradientUnits="userSpaceOnUse"
       id="radialGradient2261"
       xlink:href="#GradientFlameOuter" />
    <radialGradient
       gradientUnits="userSpaceOnUse"
       gradientTransform="matrix(0.99995115,0.00746488,-0.02587111,1.9764864,2.6456715,-100.5514)"
       r="14.962049"
       fy="102.14227"
       fx="64.21228"
       cy="102.14227"
       cx="64.21228"
       id="radialGradient2281"
       xlink:href="#GradientFlameInner" />
    <filter
       height="1.1293039"
       y="-0.064651926"
       width="1.0132276"
       x="-0.0066137906"
       id="filter2301"
       style="color-interpolation-filters:sRGB">
      <feGaussianBlur
         id="feGaussianBlur2303"
         stdDeviation="0.27931206" />
    </filter>
    <filter
       height="1.0356388"
       y="-0.017819379"
       width="1.0180917"
       x="-0.0090458453"
       id="filter2305"
       style="color-interpolation-filters:sRGB">
      <feGaussianBlur
         id="feGaussianBlur2307"
         stdDeviation="0.068302268" />
    </filter>
    <filter
       style="color-interpolation-filters:sRGB"
       id="filter2313"
       x="-0.054034237"
       width="1.1080685"
       y="-0.52820201"
       height="2.056404">
      <feGaussianBlur
         stdDeviation="2.2819612"
         id="feGaussianBlur2311" />
    </filter>
    <linearGradient
       gradientTransform="matrix(0.14466338,0,0,0.38256017,36.379374,42.06779)"
       y2="68.651756"
       x2="72.948746"
       y1="130.96977"
       x1="169.84674"
       gradientUnits="userSpaceOnUse"
       id="linearGradient2344"
       xlink:href="#GradientBackground" />
  </defs>
  <metadata
     id="metadata5">
    <rdf:RDF>
      <cc:Work
         rdf:about="">
        <dc:format>image/svg+xml</dc:format>
        <dc:type
           rdf:resource="http://purl.org/dc/dcmitype/StillImage" />
        <dc:title></dc:title>
      </cc:Work>
    </rdf:RDF>
  </metadata>
  <g
     id="layer1">
    <rect
       y="68.842789"
       x="54.66497"
       height="63.273182"
       width="123.36188"
       id="rect2226"
       style="display:inline;fill:url(#linearGradient2235);fill-opacity:1;stroke:none;stroke-width:0.264583;stroke-opacity:1" />
    <path
       d="M 44.287395,68.404297 69.806902,68.038889 62.133343,92.610096 H 44.287395 Z"
       style="display:inline;fill:url(#linearGradient2344);fill-opacity:1;stroke:none;stroke-width:0.0622431;stroke-opacity:1"
       id="rect2342" />
    <rect
       ry="0"
       y="68.696602"
       x="44.798965"
       height="24.18998"
       width="19.732006"
       id="rect2352"
       style="opacity:1;fill:#0000ff;fill-opacity:1;stroke:none;stroke-width:0.26952;stroke-opacity:1" />
    <g
       transform="matrix(0.75519884,0,0,1,15.064664,0)"
       style="display:inline"
       id="g2218">
      <path
         d="m 157.17628,101.84483 c -0.25058,2.03561 -14.38412,3.49896 -24.63194,3.99741 -20.5051,0.99737 -41.91434,0.40107 -62.869234,0.29146 -4.037637,-0.0213 -12.082976,-0.18272 -12.082976,-0.18272 -3.725776,-6.999938 -0.522507,-6.617524 0.20701,-9.790456 0,0 11.881754,-0.164188 17.816159,-0.106399 19.134391,0.186175 39.543651,-0.127093 57.013511,1.456866 9.92072,0.899491 24.79784,2.298277 24.5475,4.333899 z"
         style="display:block;opacity:1;fill:url(#radialGradient2261);fill-opacity:1;stroke:none;stroke-width:0.31875;stroke-opacity:1;filter:url(#filter2313)"
         id="path2309" />
      <path
         id="path2257"
         style="display:block;fill:url(#radialGradient2261);fill-opacity:1;stroke:none;stroke-width:0.31875;stroke-opacity:1;filter:url(#filter2301)"
         d="m 157.17628,101.84483 c -0.25058,2.03561 -14.38412,3.49896 -24.63194,3.99741 -20.5051,0.99737 -41.91434,0.40107 -62.869234,0.29146 -4.037637,-0.0213 -12.082976,-0.18272 -12.082976,-0.18272 -3.725776,-6.999938 -0.522507,-6.617524 0.20701,-9.790456 0,0 11.881754,-0.164188 17.816159,-0.106399 19.134391,0.186175 39.543651,-0.127093 57.013511,1.456866 9.92072,0.899491 24.79784,2.298277 24.5475,4.333899 z" />
      <path
         id="path2237"
         style="display:block;opacity:1;fill:url(#radialGradient2281);fill-opacity:1;stroke:none;stroke-width:0.154069;stroke-opacity:1;filter:url(#filter2243)"
         d="m 81.594744,101.89231 c -0.05437,2.19183 -3.121099,3.76748 -5.344691,4.30418 -4.449235,1.07391 -9.094657,0.43185 -13.641492,0.31383 -0.876095,-0.0229 -2.621789,-0.19675 -2.621789,-0.19675 -0.808426,-7.537116 -0.113374,-7.125355 0.04492,-10.541781 0,0 2.578127,-0.176788 3.865786,-0.114564 4.151819,0.200462 8.58026,-0.136846 12.370908,1.568667 2.152618,0.968519 5.380684,2.474649 5.326363,4.666478 z" />
      <path
         d="m 79.659439,101.77505 c -0.0448,1.80605 -2.571761,3.10437 -4.403983,3.54661 -3.666135,0.88489 -7.493926,0.35584 -11.240482,0.25859 -0.721895,-0.0189 -2.160333,-0.16212 -2.160333,-0.16212 -0.666137,-6.210523 -0.09342,-5.871235 0.03701,-8.686343 0,0 2.124356,-0.145672 3.185377,-0.0944 3.421066,0.165179 7.070067,-0.11276 10.193531,1.292569 1.77374,0.798052 4.433641,2.039091 4.388881,3.845144 z"
         style="display:block;fill:url(#radialGradient2255);fill-opacity:1;stroke:none;stroke-width:0.126952;stroke-opacity:1;filter:url(#filter2305)"
         id="path2210" />
    </g>
    <g
       id="g1482">
      <path
         transform="scale(0.26458333)"
         d="m 195.71484,253.66797 v 9.60547 l 5.83594,4.81445 13.36914,-7.73047 4.44922,9.71485 10.62305,0.42578 1.96484,12.47851 13.39649,2.24024 -3.29688,15.49609 2.99414,9.72266 -6.13672,10.41601 -0.73047,13.30274 -9.75195,0.95703 -7.80664,11.64258 -8.51367,-4.82813 -9.40235,7.61914 -6.99414,-10.32422 V 499.33594 H 672.85742 V 253.66797 Z m 204.04688,34.72656 c 8.09099,-0.0776 23.78234,4.51526 30.95508,4.28516 7.65091,-0.24544 27.32255,-4.30525 34.96289,-3.99805 7.64029,0.30722 19.92556,2.93287 27.36719,3.78516 7.44155,0.85228 29.79585,-0.0756 36.85546,1.30078 7.05968,1.37637 17.0371,6.11975 23.54102,7.98633 6.50385,1.86658 20.63813,4.60483 26.97852,5.39648 6.18415,0.77216 25.82243,4.52254 30.75195,7.2207 4.92945,2.69817 14.51326,16.19578 18.46289,19.21485 0.23775,10.89757 9.28577,12.66027 14.97656,20.89062 1.72471,3.43179 4.49678,20.83617 5.03125,24.34961 0.53461,3.51344 2.09478,10.93871 1.42578,14.44727 -0.66893,3.50859 -2.33546,12.71939 -4.1914,16.13672 -1.85594,3.41733 -0.71373,9.87916 -3.71094,13.12109 -2.99728,3.24193 -21.27907,6.30433 -25.34375,9.29102 -4.06468,2.98671 -10.60464,9.13111 -15.63672,11.78906 -5.03208,2.65791 -15.22991,5.43357 -21.10547,7.69726 -5.87556,2.26373 -18.05003,8.85409 -23.51953,13.98243 -4.97512,4.66472 -17.39265,6.39571 -24.50391,7.71484 -7.11132,1.31916 -31.15968,6.03998 -38.63281,6.83203 -7.47313,0.79205 -18.18692,-1.13606 -25.83789,-0.89062 -7.6509,0.2455 -33.26005,3.33846 -40.90039,3.03125 -7.64033,-0.30719 -20.4783,-2.10475 -27.91992,-2.95704 -7.44162,-0.85228 -33.24893,0.21235 -40.3086,-1.16406 -7.05966,-1.37637 -14.82619,1.8922 -21.33007,0.0254 -6.50388,-1.8666 -19.12026,2.43793 -24.90821,0.12696 -5.78795,-2.31082 -20.15992,-10.32241 -27.85156,-12.33008 -5.43743,-1.41928 -22.79837,-3.35203 -26.74805,-6.3711 -3.94966,-3.01907 -13.18513,-20.46636 -15.36718,-26.49414 -1.48042,-4.08955 -7.1375,-21.2109 -5.27149,-26.57617 1.2617,-3.6277 1.44073,-16.83031 0.90625,-20.34375 -0.53447,-3.51344 -0.96392,-12.26485 -0.29492,-15.77344 0.669,-3.50857 2.28663,-11.10806 4.14258,-14.52539 1.85594,-3.41732 0.56734,-16.02883 0.25,-21.48047 -0.25656,-4.40766 7.30444,-18.72228 11.36914,-21.70898 4.06469,-2.9867 33.38979,-5.64481 38.42187,-8.30273 5.03209,-2.65794 21.84319,2.30664 27.71875,0.043 5.87557,-2.26371 17.1561,-6.45186 23.73047,-8.26562 6.57437,-1.81376 31.51371,-0.94258 38.625,-2.26172 7.1113,-1.31914 7.92533,-4.35249 15.39844,-5.14453 0.46707,-0.0495 0.97232,-0.0749 1.51172,-0.0801 z"
         style="fill:url(#linearGradient1470);fill-opacity:1;stroke-width:0.988483"
         id="rect1404" />
      <path
         d="m -67.116074,178.02678 a 32.5,3.1160634 0 0 1 -16.25,2.69859 32.5,3.1160634 0 0 1 -32.499996,0 32.5,3.1160634 0 0 1 -16.25,-2.69859 h 32.499996 z"
         style="fill:url(#linearGradient1472);fill-opacity:1;stroke-width:0.234209"
         id="path1440"
         transform="rotate(-90)" />
      <path
         transform="scale(0.26458333)"
         d="m 195.70898,253.66797 a 4.7061797,122.83465 0 0 0 -1.68554,8.21094 l 1.6914,1.39453 v -9.60547 a 4.7061797,122.83465 0 0 0 -0.006,0 z m -4.46679,84.63086 a 4.7061797,122.83465 0 0 0 0.39648,99.62109 4.7061797,122.83465 0 0 0 4.07617,61.41602 V 376.50195 339.2207 l -0.61718,-0.91015 z"
         style="fill:url(#linearGradient1474);fill-opacity:1;stroke-width:0.55957"
         id="path1440-7" />
    </g>
    <g
       id="g1559">
      <path
         transform="scale(0.26458333)"
         d="m 165.48828,253.66797 v 118.52539 h 30.22656 V 339.2207 l -0.61718,-0.91015 -10.61719,-0.0332 -1.90235,-11.24804 -10.30664,-6.76758 1.12305,-12.65625 -4.7793,-12.16992 8.72852,-5.56446 -1.05469,-15.75195 9.75196,-0.45508 5.62695,-13.72851 4.04687,3.33789 v -9.60547 z"
         style="fill:url(#linearGradient1490);fill-opacity:1;stroke-width:0.172811"
         id="rect1404-9" />
      <path
         style="fill:url(#linearGradient1498);fill-opacity:1;stroke-width:0.118395"
         id="path1421"
         d="m 98.476189,-43.785202 a 15.680061,3.30128 0 0 1 -7.840031,2.858992 15.680061,3.30128 0 0 1 -15.680062,0 15.680061,3.30128 0 0 1 -7.84003,-2.858992 h 15.680061 z"
         transform="rotate(90)" />
      <rect
         style="fill:#9f9f9f;fill-opacity:1;stroke-width:0.264583"
         id="rect1438"
         width="16.884981"
         height="4.0404572"
         x="43.785202"
         y="63.075607" />
    </g>
    <g
       id="g1615">
      <g
         transform="matrix(-1,0,0,1,235.72657,0)"
         id="g1601">
        <path
           d="m 161.19171,62.28302 a 2.1187336,2.1187336 0 0 0 -2.11873,2.118733 2.1187336,2.1187336 0 0 0 2.11873,2.118733 2.1187336,2.1187336 0 0 0 2.11874,-2.118733 2.1187336,2.1187336 0 0 0 -2.11874,-2.118733 z m -0.0171,1.059365 a 1.0593668,1.0593668 0 0 1 0.0171,0 1.0593668,1.0593668 0 0 1 1.05937,1.059368 1.0593668,1.0593668 0 0 1 -1.05937,1.059368 1.0593668,1.0593668 0 0 1 -1.05937,-1.059368 1.0593668,1.0593668 0 0 1 1.04232,-1.059368 z"
           style="fill:#5757a9;fill-opacity:1;stroke-width:0.264583"
           id="path1595" />
        <path
           d="m 162.44788,67.133746 v -2.213922 -2.213916 c 6.87307,4.410166 0,0 6.87307,4.410166 -6.87307,0.01767 0,0 -6.87307,0.01767 z"
           style="fill:#5757a9;fill-opacity:1;stroke-width:0.195078"
           id="path1597" />
        <path
           d="m 159.07422,65.518366 -0.001,-1.215366 c 1.04097,0 0,0 1.04097,0 0.0165,1.215369 0,0 0.0165,1.215369 0.62994,5.2e-4 0.48927,-6.05e-4 0.62994,5.2e-4 h 1.68746 v 1.614889 h -3.37491 z"
           style="fill:#5757a9;fill-opacity:1;stroke-width:0.177727"
           id="path1599" />
      </g>
      <g
         id="g1593">
        <path
           id="path1561"
           style="fill:#5757a9;fill-opacity:1;stroke-width:0.264583"
           d="m 161.19171,62.28302 a 2.1187336,2.1187336 0 0 0 -2.11873,2.118733 2.1187336,2.1187336 0 0 0 2.11873,2.118733 2.1187336,2.1187336 0 0 0 2.11874,-2.118733 2.1187336,2.1187336 0 0 0 -2.11874,-2.118733 z m -0.0171,1.059365 a 1.0593668,1.0593668 0 0 1 0.0171,0 1.0593668,1.0593668 0 0 1 1.05937,1.059368 1.0593668,1.0593668 0 0 1 -1.05937,1.059368 1.0593668,1.0593668 0 0 1 -1.05937,-1.059368 1.0593668,1.0593668 0 0 1 1.04232,-1.059368 z" />
        <path
           id="path1575"
           style="fill:#5757a9;fill-opacity:1;stroke-width:0.195078"
           d="m 162.44788,67.133746 v -2.213922 -2.213916 c 6.87307,4.410166 0,0 6.87307,4.410166 -6.87307,0.01767 0,0 -6.87307,0.01767 z" />
        <path
           id="rect1578"
           style="fill:#5757a9;fill-opacity:1;stroke-width:0.177727"
           d="m 159.07422,65.518366 -0.001,-1.215366 c 1.04097,0 0,0 1.04097,0 0.0165,1.215369 0,0 0.0165,1.215369 0.62994,5.2e-4 0.48927,-6.05e-4 0.62994,5.2e-4 h 1.68746 v 1.614889 h -3.37491 z" />
      </g>
      <rect
         style="fill:#8383d5;fill-opacity:1;stroke-width:0.264583"
         id="rect1603"
         width="4.4579725"
         height="1.0231411"
         x="180.14594"
         y="82.582108" />
      <rect
         y="104.5446"
         x="180.40431"
         height="1.0231411"
         width="2.685746"
         id="rect1605"
         style="fill:#4a4a9c;fill-opacity:1;stroke-width:0.205365" />
      <rect
         style="fill:#4f4fa2;fill-opacity:1;stroke-width:0.205365"
         id="rect1607"
         width="2.685746"
         height="1.0231411"
         x="48.146935"
         y="101.95468" />
      <rect
         y="118.23276"
         x="47.216759"
         height="1.0231411"
         width="3.8226275"
         id="rect1609"
         style="fill:#242477;fill-opacity:1;stroke-width:0.245005" />
      <rect
         style="fill:#27277a;fill-opacity:1;stroke-width:0.151637"
         id="rect1617"
         width="3.0370014"
         height="0.4933002"
         x="47.911034"
         y="117.26443" />
    </g>
    <path
       id="path2222"
       style="fill:none;fill-opacity:1;stroke:#000000;stroke-width:0.264583;stroke-opacity:1"
       d="m 128.60888,101.80965 c -0.0996,1.13761 -0.34769,4.12372 -0.62403,5.23174 -0.27634,1.10802 -0.10642,3.20328 -0.55269,4.25443 -0.44628,1.05115 -3.16819,2.04431 -3.7734,3.0127 -0.60521,0.9684 -1.57918,2.96079 -2.32843,3.82259 -0.74925,0.86179 -2.26763,1.76138 -3.14247,2.49535 -0.87484,0.73398 -2.68738,2.87128 -3.50176,4.53407 -0.74077,1.51247 -2.58976,2.0732 -3.64859,2.50091 -1.05884,0.42772 -4.63946,1.95837 -5.75217,2.21518 -1.11271,0.25681 -2.70788,-0.36818 -3.84707,-0.2886 -1.13918,0.0796 -4.952453,1.0824 -6.09006,0.98279 -1.137606,-0.0996 -3.049021,-0.68241 -4.15704,-0.95875 -1.108018,-0.27634 -4.95062,0.0692 -6.001768,-0.37708 -1.051148,-0.44627 -2.207471,0.61329 -3.175866,0.008 -0.968394,-0.60522 -2.846862,0.7906 -3.708657,0.0413 -0.861796,-0.74925 -3.001687,-3.34707 -4.146932,-3.99803 -0.809606,-0.46018 -3.394815,-1.08708 -3.982901,-2.06597 -0.588085,-0.97889 -1.962942,-6.63594 -2.287838,-8.59036 -0.220426,-1.32598 -1.062927,-6.87697 -0.785088,-8.61658 0.18786,-1.17623 0.214485,-5.45688 0.134904,-6.596063 -0.07958,-1.139183 -0.143511,-3.976628 -0.0439,-5.114235 0.09961,-1.137606 0.340485,-3.601736 0.616826,-4.709755 0.27634,-1.108018 0.08455,-5.19716 0.0373,-6.964775 -0.0382,-1.429123 1.087603,-6.070482 1.692815,-7.038877 0.605212,-0.968394 4.97168,-1.830443 5.720931,-2.692238 0.749251,-0.861796 3.252106,0.748117 4.126947,0.01414 0.874841,-0.733977 2.554517,-2.092254 3.533407,-2.68034 0.97889,-0.588085 4.692217,-0.305629 5.751052,-0.733342 1.058835,-0.427712 1.180173,-1.41093 2.292881,-1.667739 1.112708,-0.256809 3.69493,1.442885 4.834112,1.363304 1.139182,-0.07958 4.068228,-1.395854 5.205835,-1.296247 1.1376,0.09961 2.96676,0.951083 4.07478,1.227424 1.10801,0.27634 4.43654,-0.02441 5.48768,0.42186 1.05115,0.44627 2.53649,1.983909 3.50489,2.589121 0.96839,0.605212 3.07305,1.493124 4.0171,1.749804 0.92079,0.25036 3.84479,1.466361 4.57877,2.341202 0.73397,0.874841 2.16101,5.251543 2.74909,6.230433 0.0354,3.533381 1.3825,4.104828 2.22983,6.773402 0.2568,1.112708 0.66974,6.755472 0.74932,7.894654 0.0796,1.139182 0.3118,3.546847 0.21219,4.684447 z"
       transform="matrix(1.7769813,0,0,0.81602181,-56.273144,20.974764)"
       clip-path="none" />
    <path
       transform="matrix(0.67618008,0,0,0.77343793,20.043588,25.810114)"
       d="m 63.556497,80.939201 -3.815945,0.327844 -3.054429,3.982454 -3.331404,-1.651697 -3.678598,2.606582 -2.978277,-3.843074 -4.154914,-0.01168 -0.743779,-3.847576 -4.032999,-2.315109 0.438968,-4.329427 -1.869721,-4.163403 3.414939,-1.903527 -0.41253,-5.38828 3.815971,-0.156092 2.201597,-4.695925 3.867561,2.788612 5.231323,-2.644332 1.74063,3.323377 4.156511,0.145684 0.769297,4.268694 5.24196,0.766282 -1.290203,5.301112 1.171398,3.325719 -2.401563,3.563168 z"
       id="path2317"
       style="opacity:1;fill:none;fill-opacity:1;stroke:#000000;stroke-width:0.264583;stroke-opacity:1" />
    <g
       id="g2357">
      <rect
         style="opacity:1;fill:#2e2e2e;fill-opacity:1;stroke:none;stroke-width:0.306257;stroke-opacity:1"
         id="rect2354"
         width="35.152206"
         height="8.6966991"
         x="65.554115"
         y="68.769699" />
      <text
         id="text2361"
         y="71.985283"
         x="72.982681"
         style="font-style:normal;font-weight:normal;font-size:3.52778px;line-height:1.25;font-family:sans-serif;fill:#000000;fill-opacity:1;stroke:none;stroke-width:0.264583"
         xml:space="preserve"><tspan
           style="font-size:3.52778px;fill:#ffffff;fill-opacity:1;stroke-width:0.264583"
           y="71.985283"
           x="72.982681"
           id="tspan2359">Drum Level</tspan></text>
      <text
         xml:space="preserve"
         style="font-style:normal;font-weight:normal;font-size:3.52778px;line-height:1.25;font-family:sans-serif;fill:#000000;fill-opacity:1;stroke:none;stroke-width:0.264583"
         x="82.783981"
         y="75.858604"
         id="text2365"><tspan
           id="tspan2363"
           x="82.783981"
           y="75.858604"
           style="font-size:3.52778px;text-align:center;text-anchor:middle;fill:#ffffff;fill-opacity:1;stroke-width:0.264583">###</tspan></text>
    </g>
    <g
       transform="translate(77.320239)"
       id="g2377">
      <rect
         y="68.769699"
         x="65.554115"
         height="8.6966991"
         width="35.152206"
         id="rect2367"
         style="opacity:1;fill:#2e2e2e;fill-opacity:1;stroke:none;stroke-width:0.306257;stroke-opacity:1" />
      <text
         xml:space="preserve"
         style="font-style:normal;font-weight:normal;font-size:3.52778px;line-height:1.25;font-family:sans-serif;fill:#000000;fill-opacity:1;stroke:none;stroke-width:0.264583"
         x="72.982681"
         y="71.985283"
         id="text2371"><tspan
           id="tspan2369"
           x="72.982681"
           y="71.985283"
           style="font-size:3.52778px;fill:#ffffff;fill-opacity:1;stroke-width:0.264583">Drum Level</tspan></text>
      <text
         id="text2375"
         y="75.858604"
         x="82.783981"
         style="font-style:normal;font-weight:normal;font-size:3.52778px;line-height:1.25;font-family:sans-serif;fill:#000000;fill-opacity:1;stroke:none;stroke-width:0.264583"
         xml:space="preserve"><tspan
           style="font-size:3.52778px;text-align:center;text-anchor:middle;fill:#ffffff;fill-opacity:1;stroke-width:0.264583"
           y="75.858604"
           x="82.783981"
           id="tspan2373">###</tspan></text>
    </g>
  </g>
</svg>
